<?xml version="1.0" encoding="utf-8"?>
<!-- Generator: Adobe Illustrator 16.0.0, SVG Export Plug-In . SVG Version: 6.00 Build 0)  -->
<!DOCTYPE svg PUBLIC "-//W3C//DTD SVG 1.1//EN" "http://www.w3.org/Graphics/SVG/1.1/DTD/svg11.dtd">
<svg version="1.1" xmlns="http://www.w3.org/2000/svg" xmlns:xlink="http://www.w3.org/1999/xlink" x="0px" y="0px" width="64px"
	 height="64px" viewBox="0 0 64 64" enable-background="new 0 0 64 64" xml:space="preserve">
<g id="_x35_0_code_x2C__programming_x2C__program_x2C__bitcoin_x2C__block_x2C__chain_x2C__cryptocurrency">
</g>
<g id="_x34_9_balloon_x2C__takeoff_x2C__bitcoin_x2C__coin_x2C__block_x2C__chain_x2C__cryptocurrency">
</g>
<g id="_x34_8_video_card_x2C__mining_x2C__farm_x2C__computer_x2C__block_x2C__chain_x2C__cryptocurrency">
</g>
<g id="_x34_7_money_box_x2C__saving_x2C__bitcoin_x2C__coin_x2C__block_x2C__chain_x2C__cryptocurrency">
</g>
<g id="_x34_6_portfolio_x2C__finance_x2C__bank_note_x2C__bitcoin_x2C__coin_x2C__cryptocurrency">
</g>
<g id="_x34_5_tap_x2C__water_x2C__bitcoin_x2C__coin_x2C__block_x2C__chain_x2C__cryptocurrency">
</g>
<g id="_x34_4_phone_x2C__bitcoin_x2C__coin_x2C__block_x2C__chain_x2C__cryptocurrency">
</g>
<g id="_x34_3_rocket_x2C__sun_x2C__bitcoin_x2C__coin_x2C__block_x2C__chain_x2C__cryptocurrency">
</g>
<g id="_x34_2_transfer_x2C__network_x2C__bitcoin_x2C__coin_x2C__block_x2C__chain_x2C__cryptocurrency">
</g>
<g id="_x34_1_scales_x2C__comparison_x2C__bitcoin_x2C__coin_x2C__block_x2C__chain_x2C__cryptocurrency">
</g>
<g id="_x34_0_calculator_x2C__calculating_x2C__bitcoin_x2C__coin_x2C__block_x2C__chain_x2C__cryptocurrency">
</g>
<g id="_x33_9_start-up_x2C__plant_x2C__hand_x2C__bitcoin_x2C__coin_x2C__cryptocurrency">
</g>
<g id="_x33_8_idea_x2C__bulb_x2C__bitcoin_x2C__coin_x2C__block_x2C__chain_x2C__cryptocurrency">
</g>
<g id="_x33_7_users_x2C__user_x2C__co-founder_x2C__bitcoin_x2C__coin_x2C__cryptocurrency">
</g>
<g id="_x33_6_safe_x2C__protection_x2C__bitcoin_x2C__coin_x2C__block_x2C__chain_x2C__cryptocurrency">
</g>
<g id="_x33_5_flash_drive_x2C__key_x2C__block_x2C__chain_x2C__cryptocurrency">
</g>
<g id="_x33_4_cloud_x2C__mining_x2C__bitcoin_x2C__coin_x2C__block_x2C__chain_x2C__cryptocurrency">
</g>
<g id="_x33_3_start_up_x2C__plant_x2C__bitcoin_x2C__coin_x2C__block_x2C__chain_x2C__cryptocurrency">
</g>
<g id="_x33_2_planet_x2C__bitcoin_x2C__coin_x2C__block_x2C__chain_x2C__cryptocurrency">
</g>
<g id="_x33_1_payment_x2C__hand_x2C__bitcoin_x2C__coin_x2C__block_x2C__chain_x2C__cryptocurrency">
</g>
<g id="_x33_0_user_x2C__laptop_x2C__bitcoin_x2C__coin_x2C__block_x2C__chain_x2C__cryptocurrency">
</g>
<g id="_x32_9_thief_x2C__bag_x2C__bitcoin_x2C__coin_x2C__block_x2C__chain_x2C__cryptocurrency">
</g>
<g id="_x32_8_code_x2C__programming_x2C__program_x2C__bitcoin_x2C__coin_x2C__cryptocurrency">
</g>
<g id="_x32_7_bitcoin_x2C__coin_x2C__block_x2C__chain_x2C__cryptocurrency">
</g>
<g id="_x32_6_shield_x2C__protection_x2C__bitcoin_x2C__coin_x2C__block_x2C__chain_x2C__cryptocurrency">
</g>
<g id="_x32_5_bug_x2C__laptop_x2C__miner_x2C__program_x2C__block_x2C__chain_x2C__cryptocurrency">
</g>
<g id="_x32_4_computer_x2C__monitor_x2C__bitcoin_x2C__coin_x2C__block_x2C__chain_x2C__cryptocurrency">
</g>
<g id="_x32_3_network_x2C__idea_x2C__bitcoin_x2C__coin_x2C__block_x2C__chain_x2C__cryptocurrency">
</g>
<g id="_x32_2_block_x2C__chain_x2C__cryptocurrency_x2C__technology_x2C__future">
	<g>
		<polygon fill="#5C9EFF" points="62.5,40.995 62.5,58.995 58.5,62.995 58.5,44.995 		"/>
	</g>
	<g>
		<polygon fill="#94C1FF" points="51.5,40.995 62.5,40.995 58.5,44.995 40.5,44.995 44.5,40.995 		"/>
	</g>
	<g>
		<polygon fill="#D7E9FF" points="58.5,44.995 58.5,62.995 40.5,62.995 40.5,51.995 40.5,44.995 		"/>
	</g>
	<g>
		<polygon fill="#5C9EFF" points="62.5,1.005 62.5,19.005 58.5,23.005 58.5,5.005 		"/>
	</g>
	<g>
		<polygon fill="#94C1FF" points="62.5,1.005 58.5,5.005 40.5,5.005 44.5,1.005 		"/>
	</g>
	<g>
		<polygon fill="#D7E9FF" points="58.5,5.005 58.5,23.005 51.5,23.005 40.5,23.005 40.5,11.995 40.5,5.005 		"/>
	</g>
	<g>
		<polygon fill="#94C1FF" points="23.5,1.005 19.5,5.005 1.5,5.005 5.5,1.005 		"/>
	</g>
	<g>
		<polygon fill="#5C9EFF" points="23.5,11.995 23.5,19.005 19.5,23.005 19.5,5.005 23.5,1.005 		"/>
	</g>
	<g>
		<polygon fill="#94C1FF" points="12.5,40.995 23.5,40.995 19.5,44.995 1.5,44.995 5.5,40.995 		"/>
	</g>
	<g>
		<polygon fill="#5C9EFF" points="23.5,51.995 23.5,58.995 19.5,62.995 19.5,44.995 23.5,40.995 		"/>
	</g>
	<g>
		<rect x="1.5" y="44.995" fill="#D7E9FF" width="18" height="18"/>
	</g>
	<g>
		<polygon fill="#D7E9FF" points="19.5,5.005 19.5,23.005 12.5,23.005 1.5,23.005 1.5,5.005 		"/>
	</g>
	<g>
		<g>
			<g>
				<path fill="#116FFF" d="M19.503,24.006h-18c-0.553,0-1-0.447-1-1v-18c0-0.553,0.447-1,1-1h18c0.553,0,1,0.447,1,1v18
					C20.503,23.559,20.056,24.006,19.503,24.006z M2.503,22.006h16v-16h-16V22.006z"/>
			</g>
			<g>
				<path fill="#116FFF" d="M23.503,20.006c-0.553,0-1-0.447-1-1v-17h-17c-0.553,0-1-0.447-1-1s0.447-1,1-1h18c0.553,0,1,0.447,1,1
					v18C24.503,19.559,24.056,20.006,23.503,20.006z"/>
			</g>
			<g>
				<path fill="#116FFF" d="M1.503,6.006c-0.256,0-0.512-0.098-0.707-0.293c-0.391-0.391-0.391-1.023,0-1.414l4-4
					c0.391-0.391,1.023-0.391,1.414,0s0.391,1.023,0,1.414l-4,4C2.015,5.908,1.759,6.006,1.503,6.006z"/>
			</g>
			<g>
				<path fill="#116FFF" d="M19.503,24.006c-0.256,0-0.512-0.098-0.707-0.293c-0.391-0.391-0.391-1.023,0-1.414l4-4
					c0.391-0.391,1.023-0.391,1.414,0s0.391,1.023,0,1.414l-4,4C20.015,23.908,19.759,24.006,19.503,24.006z"/>
			</g>
			<g>
				<path fill="#116FFF" d="M19.503,6.006c-0.256,0-0.512-0.098-0.707-0.293c-0.391-0.391-0.391-1.023,0-1.414l4-4
					c0.391-0.391,1.023-0.391,1.414,0s0.391,1.023,0,1.414l-4,4C20.015,5.908,19.759,6.006,19.503,6.006z"/>
			</g>
		</g>
		<g>
			<g>
				<path fill="#116FFF" d="M19.503,63.994h-18c-0.553,0-1-0.447-1-1v-18c0-0.553,0.447-1,1-1h18c0.553,0,1,0.447,1,1v18
					C20.503,63.547,20.056,63.994,19.503,63.994z M2.503,61.994h16v-16h-16V61.994z"/>
			</g>
			<g>
				<path fill="#116FFF" d="M23.503,59.994c-0.553,0-1-0.447-1-1v-17h-17c-0.553,0-1-0.447-1-1s0.447-1,1-1h18c0.553,0,1,0.447,1,1
					v18C24.503,59.547,24.056,59.994,23.503,59.994z"/>
			</g>
			<g>
				<path fill="#116FFF" d="M1.503,45.994c-0.256,0-0.512-0.098-0.707-0.293c-0.391-0.391-0.391-1.023,0-1.414l4-4
					c0.391-0.391,1.023-0.391,1.414,0s0.391,1.023,0,1.414l-4,4C2.015,45.896,1.759,45.994,1.503,45.994z"/>
			</g>
			<g>
				<path fill="#116FFF" d="M19.503,63.994c-0.256,0-0.512-0.098-0.707-0.293c-0.391-0.391-0.391-1.023,0-1.414l4-4
					c0.391-0.391,1.023-0.391,1.414,0s0.391,1.023,0,1.414l-4,4C20.015,63.896,19.759,63.994,19.503,63.994z"/>
			</g>
			<g>
				<path fill="#116FFF" d="M19.503,45.994c-0.256,0-0.512-0.098-0.707-0.293c-0.391-0.391-0.391-1.023,0-1.414l4-4
					c0.391-0.391,1.023-0.391,1.414,0s0.391,1.023,0,1.414l-4,4C20.015,45.896,19.759,45.994,19.503,45.994z"/>
			</g>
		</g>
		<g>
			<g>
				<path fill="#116FFF" d="M12.503,43.994c-0.553,0-1-0.447-1-1v-7c0-0.553,0.447-1,1-1s1,0.447,1,1v7
					C13.503,43.547,13.056,43.994,12.503,43.994z"/>
			</g>
			<g>
				<path fill="#116FFF" d="M12.503,38.994c-2.206,0-4-1.794-4-4v-4c0-2.206,1.794-4,4-4s4,1.794,4,4v4
					C16.503,37.2,14.709,38.994,12.503,38.994z M12.503,28.994c-1.103,0-2,0.897-2,2v4c0,1.103,0.897,2,2,2s2-0.897,2-2v-4
					C14.503,29.892,13.605,28.994,12.503,28.994z"/>
			</g>
			<g>
				<path fill="#116FFF" d="M12.503,30.994c-0.553,0-1-0.447-1-1v-6c0-0.553,0.447-1,1-1s1,0.447,1,1v6
					C13.503,30.547,13.056,30.994,12.503,30.994z"/>
			</g>
		</g>
		<g>
			<g>
				<path fill="#116FFF" d="M28.497,52.994h-7c-0.553,0-1-0.447-1-1s0.447-1,1-1h7c0.553,0,1,0.447,1,1S29.05,52.994,28.497,52.994z
					"/>
			</g>
			<g>
				<path fill="#116FFF" d="M33.497,55.994h-4c-2.206,0-4-1.794-4-4s1.794-4,4-4h4c2.206,0,4,1.794,4,4S35.703,55.994,33.497,55.994
					z M29.497,49.994c-1.103,0-2,0.897-2,2s0.897,2,2,2h4c1.103,0,2-0.897,2-2s-0.897-2-2-2H29.497z"/>
			</g>
			<g>
				<path fill="#116FFF" d="M40.497,52.994h-6c-0.553,0-1-0.447-1-1s0.447-1,1-1h6c0.553,0,1,0.447,1,1S41.05,52.994,40.497,52.994z
					"/>
			</g>
		</g>
		<g>
			<g>
				<path fill="#116FFF" d="M28.497,12.994h-7c-0.553,0-1-0.447-1-1s0.447-1,1-1h7c0.553,0,1,0.447,1,1S29.05,12.994,28.497,12.994z
					"/>
			</g>
			<g>
				<path fill="#116FFF" d="M33.497,15.994h-4c-2.206,0-4-1.794-4-4s1.794-4,4-4h4c2.206,0,4,1.794,4,4S35.703,15.994,33.497,15.994
					z M29.497,9.994c-1.103,0-2,0.897-2,2s0.897,2,2,2h4c1.103,0,2-0.897,2-2s-0.897-2-2-2H29.497z"/>
			</g>
			<g>
				<path fill="#116FFF" d="M40.497,12.994h-6c-0.553,0-1-0.447-1-1s0.447-1,1-1h6c0.553,0,1,0.447,1,1S41.05,12.994,40.497,12.994z
					"/>
			</g>
		</g>
		<g>
			<g>
				<path fill="#116FFF" d="M58.497,24.006h-18c-0.553,0-1-0.447-1-1v-18c0-0.553,0.447-1,1-1h18c0.553,0,1,0.447,1,1v18
					C59.497,23.559,59.05,24.006,58.497,24.006z M41.497,22.006h16v-16h-16V22.006z"/>
			</g>
			<g>
				<path fill="#116FFF" d="M62.497,20.006c-0.553,0-1-0.447-1-1v-17h-17c-0.553,0-1-0.447-1-1s0.447-1,1-1h18c0.553,0,1,0.447,1,1
					v18C63.497,19.559,63.05,20.006,62.497,20.006z"/>
			</g>
			<g>
				<path fill="#116FFF" d="M40.497,6.006c-0.256,0-0.512-0.098-0.707-0.293c-0.391-0.391-0.391-1.023,0-1.414l4-4
					c0.391-0.391,1.023-0.391,1.414,0s0.391,1.023,0,1.414l-4,4C41.009,5.908,40.753,6.006,40.497,6.006z"/>
			</g>
			<g>
				<path fill="#116FFF" d="M58.497,24.006c-0.256,0-0.512-0.098-0.707-0.293c-0.391-0.391-0.391-1.023,0-1.414l4-4
					c0.391-0.391,1.023-0.391,1.414,0s0.391,1.023,0,1.414l-4,4C59.009,23.908,58.753,24.006,58.497,24.006z"/>
			</g>
			<g>
				<path fill="#116FFF" d="M58.497,6.006c-0.256,0-0.512-0.098-0.707-0.293c-0.391-0.391-0.391-1.023,0-1.414l4-4
					c0.391-0.391,1.023-0.391,1.414,0s0.391,1.023,0,1.414l-4,4C59.009,5.908,58.753,6.006,58.497,6.006z"/>
			</g>
		</g>
		<g>
			<g>
				<path fill="#116FFF" d="M58.497,63.994h-18c-0.553,0-1-0.447-1-1v-18c0-0.553,0.447-1,1-1h18c0.553,0,1,0.447,1,1v18
					C59.497,63.547,59.05,63.994,58.497,63.994z M41.497,61.994h16v-16h-16V61.994z"/>
			</g>
			<g>
				<path fill="#116FFF" d="M62.497,59.994c-0.553,0-1-0.447-1-1v-17h-17c-0.553,0-1-0.447-1-1s0.447-1,1-1h18c0.553,0,1,0.447,1,1
					v18C63.497,59.547,63.05,59.994,62.497,59.994z"/>
			</g>
			<g>
				<path fill="#116FFF" d="M40.497,45.994c-0.256,0-0.512-0.098-0.707-0.293c-0.391-0.391-0.391-1.023,0-1.414l4-4
					c0.391-0.391,1.023-0.391,1.414,0s0.391,1.023,0,1.414l-4,4C41.009,45.896,40.753,45.994,40.497,45.994z"/>
			</g>
			<g>
				<path fill="#116FFF" d="M58.497,63.994c-0.256,0-0.512-0.098-0.707-0.293c-0.391-0.391-0.391-1.023,0-1.414l4-4
					c0.391-0.391,1.023-0.391,1.414,0s0.391,1.023,0,1.414l-4,4C59.009,63.896,58.753,63.994,58.497,63.994z"/>
			</g>
			<g>
				<path fill="#116FFF" d="M58.497,45.994c-0.256,0-0.512-0.098-0.707-0.293c-0.391-0.391-0.391-1.023,0-1.414l4-4
					c0.391-0.391,1.023-0.391,1.414,0s0.391,1.023,0,1.414l-4,4C59.009,45.896,58.753,45.994,58.497,45.994z"/>
			</g>
		</g>
		<g>
			<g>
				<path fill="#116FFF" d="M51.497,43.994c-0.553,0-1-0.447-1-1v-7c0-0.553,0.447-1,1-1s1,0.447,1,1v7
					C52.497,43.547,52.05,43.994,51.497,43.994z"/>
			</g>
			<g>
				<path fill="#116FFF" d="M51.497,38.994c-2.206,0-4-1.794-4-4v-4c0-2.206,1.794-4,4-4s4,1.794,4,4v4
					C55.497,37.2,53.703,38.994,51.497,38.994z M51.497,28.994c-1.103,0-2,0.897-2,2v4c0,1.103,0.897,2,2,2s2-0.897,2-2v-4
					C53.497,29.892,52.6,28.994,51.497,28.994z"/>
			</g>
			<g>
				<path fill="#116FFF" d="M51.497,30.994c-0.553,0-1-0.447-1-1v-6c0-0.553,0.447-1,1-1s1,0.447,1,1v6
					C52.497,30.547,52.05,30.994,51.497,30.994z"/>
			</g>
		</g>
	</g>
</g>
<g id="_x32_1_smart_contact_x2C__contact_x2C__block_x2C__chain_x2C__cryptocurrency">
</g>
<g id="_x32_0_lock_x2C__safe_x2C__protection_x2C__block_x2C__chain_x2C__cryptocurrency_x2C__program">
</g>
<g id="_x31_9_server_x2C__data_x2C__bitcoin_x2C__coin_x2C__block_x2C__chain_x2C__cryptocurrency">
</g>
<g id="_x31_8_key_x2C__bitcoin_x2C__coin_x2C__block_x2C__chain_x2C__cryptocurrency">
</g>
<g id="_x31_7_pool_x2C__network_x2C__bitcoin_x2C__coin_x2C__block_x2C__chain_x2C__cryptocurrency">
</g>
<g id="_x31_6_mining_x2C__shovel_x2C__mine_x2C__coin_x2C__block_x2C__chain_x2C__cryptocurrency">
</g>
<g id="_x31_5_purse_x2C__bitcoin_x2C__coin_x2C__block_x2C__chain_x2C__cryptocurrency">
</g>
<g id="_x31_4_safe_x2C__protection_x2C__block_x2C__chain_x2C__cryptocurrency_x2C__program">
</g>
<g id="_x31_3_mining_x2C__funnel_x2C__satoshi_x2C__bitcoin_x2C__coin_x2C__cryptocurrency">
</g>
<g id="_x31_2_chart_x2C__bitcoin_x2C__coin_x2C__block_x2C__chain_x2C__cryptocurrency">
</g>
<g id="_x31_1_computer_x2C__monitor_x2C__bitcoin_x2C__coin_x2C__block_x2C__chain_x2C__cryptocurrency">
</g>
<g id="_x31_0_mining_x2C__pickaxe_x2C__stone_x2C__mine_x2C___bitcoin_x2C__coin_x2C__cryptocurrency">
</g>
<g id="_x39__miner_x2C__mining_x2C__computer_x2C__pickaxe_x2C__program_x2C__cryptocurrency">
</g>
<g id="_x38__video_card_x2C__mining_x2C__bitcoin_x2C__coin_x2C__block_x2C__chain_x2C__cryptocurrency">
</g>
<g id="_x37__exchanger_x2C__site_x2C__bitcoin_x2C__coin_x2C__block_x2C__chain_x2C__cryptocurrency">
</g>
<g id="_x36__shop_x2C__product_x2C__bitcoin_x2C__coin_x2C__block_x2C__chain_x2C__cryptocurrency">
</g>
<g id="_x35__bitcoin_x2C__coin_x2C__exchange_x2C__block_x2C__chain_x2C__cryptocurrency_x2C__product">
</g>
<g id="_x34__bitcoin_x2C__coin_x2C__exchange_x2C__block_x2C__chain_x2C__cryptocurrency">
</g>
<g id="_x33__bitcoin_x2C__coin_x2C__exchange_x2C__block_x2C__chain_x2C__cryptocurrency">
</g>
<g id="_x32__brain_x2C__smart_x2C__coin_x2C__block_x2C__chain_x2C__cryptocurrency">
</g>
<g id="_x31__bitcoin_x2C__coin_x2C__block_x2C__chain_x2C__cryptocurrency">
</g>
</svg>
