<?xml version="1.0" encoding="utf-8"?>
<!-- Generator: Adobe Illustrator 16.0.0, SVG Export Plug-In . SVG Version: 6.00 Build 0)  -->
<!DOCTYPE svg PUBLIC "-//W3C//DTD SVG 1.1//EN" "http://www.w3.org/Graphics/SVG/1.1/DTD/svg11.dtd">
<svg version="1.1" xmlns="http://www.w3.org/2000/svg" xmlns:xlink="http://www.w3.org/1999/xlink" x="0px" y="0px" width="64px"
	 height="64px" viewBox="0 0 64 64" enable-background="new 0 0 64 64" xml:space="preserve">
<g id="_x35_0_code_x2C__programming_x2C__program_x2C__bitcoin_x2C__block_x2C__chain_x2C__cryptocurrency">
</g>
<g id="_x34_9_balloon_x2C__takeoff_x2C__bitcoin_x2C__coin_x2C__block_x2C__chain_x2C__cryptocurrency">
</g>
<g id="_x34_8_video_card_x2C__mining_x2C__farm_x2C__computer_x2C__block_x2C__chain_x2C__cryptocurrency">
</g>
<g id="_x34_7_money_box_x2C__saving_x2C__bitcoin_x2C__coin_x2C__block_x2C__chain_x2C__cryptocurrency">
</g>
<g id="_x34_6_portfolio_x2C__finance_x2C__bank_note_x2C__bitcoin_x2C__coin_x2C__cryptocurrency">
</g>
<g id="_x34_5_tap_x2C__water_x2C__bitcoin_x2C__coin_x2C__block_x2C__chain_x2C__cryptocurrency">
</g>
<g id="_x34_4_phone_x2C__bitcoin_x2C__coin_x2C__block_x2C__chain_x2C__cryptocurrency">
</g>
<g id="_x34_3_rocket_x2C__sun_x2C__bitcoin_x2C__coin_x2C__block_x2C__chain_x2C__cryptocurrency">
</g>
<g id="_x34_2_transfer_x2C__network_x2C__bitcoin_x2C__coin_x2C__block_x2C__chain_x2C__cryptocurrency">
</g>
<g id="_x34_1_scales_x2C__comparison_x2C__bitcoin_x2C__coin_x2C__block_x2C__chain_x2C__cryptocurrency">
</g>
<g id="_x34_0_calculator_x2C__calculating_x2C__bitcoin_x2C__coin_x2C__block_x2C__chain_x2C__cryptocurrency">
</g>
<g id="_x33_9_start-up_x2C__plant_x2C__hand_x2C__bitcoin_x2C__coin_x2C__cryptocurrency">
</g>
<g id="_x33_8_idea_x2C__bulb_x2C__bitcoin_x2C__coin_x2C__block_x2C__chain_x2C__cryptocurrency">
</g>
<g id="_x33_7_users_x2C__user_x2C__co-founder_x2C__bitcoin_x2C__coin_x2C__cryptocurrency">
</g>
<g id="_x33_6_safe_x2C__protection_x2C__bitcoin_x2C__coin_x2C__block_x2C__chain_x2C__cryptocurrency">
</g>
<g id="_x33_5_flash_drive_x2C__key_x2C__block_x2C__chain_x2C__cryptocurrency">
</g>
<g id="_x33_4_cloud_x2C__mining_x2C__bitcoin_x2C__coin_x2C__block_x2C__chain_x2C__cryptocurrency">
</g>
<g id="_x33_3_start_up_x2C__plant_x2C__bitcoin_x2C__coin_x2C__block_x2C__chain_x2C__cryptocurrency">
</g>
<g id="_x33_2_planet_x2C__bitcoin_x2C__coin_x2C__block_x2C__chain_x2C__cryptocurrency">
</g>
<g id="_x33_1_payment_x2C__hand_x2C__bitcoin_x2C__coin_x2C__block_x2C__chain_x2C__cryptocurrency">
</g>
<g id="_x33_0_user_x2C__laptop_x2C__bitcoin_x2C__coin_x2C__block_x2C__chain_x2C__cryptocurrency">
</g>
<g id="_x32_9_thief_x2C__bag_x2C__bitcoin_x2C__coin_x2C__block_x2C__chain_x2C__cryptocurrency">
</g>
<g id="_x32_8_code_x2C__programming_x2C__program_x2C__bitcoin_x2C__coin_x2C__cryptocurrency">
</g>
<g id="_x32_7_bitcoin_x2C__coin_x2C__block_x2C__chain_x2C__cryptocurrency">
</g>
<g id="_x32_6_shield_x2C__protection_x2C__bitcoin_x2C__coin_x2C__block_x2C__chain_x2C__cryptocurrency">
</g>
<g id="_x32_5_bug_x2C__laptop_x2C__miner_x2C__program_x2C__block_x2C__chain_x2C__cryptocurrency">
</g>
<g id="_x32_4_computer_x2C__monitor_x2C__bitcoin_x2C__coin_x2C__block_x2C__chain_x2C__cryptocurrency">
</g>
<g id="_x32_3_network_x2C__idea_x2C__bitcoin_x2C__coin_x2C__block_x2C__chain_x2C__cryptocurrency">
</g>
<g id="_x32_2_block_x2C__chain_x2C__cryptocurrency_x2C__technology_x2C__future">
</g>
<g id="_x32_1_smart_contact_x2C__contact_x2C__block_x2C__chain_x2C__cryptocurrency">
	<g>
		<polygon fill="#D7E9FF" points="57.5,44.995 57.5,46.995 55.5,49.995 53.5,46.995 53.5,44.995 		"/>
	</g>
	<g>
		<rect x="53.5" y="22.995" fill="#94C1FF" width="4" height="22"/>
	</g>
	<g>
		<path fill="#94C1FF" d="M57.5,13.995v9h-4v-10c0-1.109,0.9-2,2-2s2,0.891,2,2V13.995z"/>
	</g>
	<g>
		<polygon fill="#FFFFFF" points="49.5,6.995 43.5,6.995 43.5,6.865 43.5,1.005 		"/>
	</g>
	<g>
		<polygon fill="#94C1FF" points="6.51,59.995 43.5,59.995 43.51,62.995 3.51,62.995 3.51,6.995 6.5,6.995 6.51,6.995 		"/>
	</g>
	<g>
		<polygon fill="#D7E9FF" points="9.5,57.005 46.5,57.005 46.51,59.995 43.5,59.995 6.51,59.995 6.51,6.995 6.51,3.995 9.5,4.005 		
			"/>
	</g>
	<g>
		<path fill="#FFFFFF" d="M49.5,6.995v50.01h-3h-37v-53v-3h34v5.86v0.13H49.5z"/>
	</g>
	<g>
		<g>
			<polygon fill="#D7E9FF" points="45.5,6.995 45.5,57.005 46.5,57.005 49.5,57.005 49.5,6.995 			"/>
		</g>
	</g>
	<g>
		<path fill="#D7E9FF" d="M17.5,43.998c1.1,0,2,0.89,2,2v3c0,1.1-0.9,2-2,2c-1.101,0-2-0.9-2-2v-3
			C15.5,44.888,16.399,43.998,17.5,43.998z"/>
	</g>
	<g>
		<path fill="#D7E9FF" d="M17.5,31.998c1.1,0,2,0.89,2,2v3c0,1.1-0.9,2-2,2c-1.101,0-2-0.9-2-2v-3
			C15.5,32.888,16.399,31.998,17.5,31.998z"/>
	</g>
	<g>
		<path fill="#D7E9FF" d="M17.5,19.998c1.1,0,2,0.89,2,2v3c0,1.1-0.9,2-2,2c-1.101,0-2-0.9-2-2v-3
			C15.5,20.888,16.399,19.998,17.5,19.998z"/>
	</g>
	<g>
		<path fill="#D7E9FF" d="M17.5,14.998c-1.101,0-2-0.9-2-2v-3c0-1.11,0.899-2,2-2c1.1,0,2,0.89,2,2v3
			C19.5,14.098,18.6,14.998,17.5,14.998z"/>
	</g>
	<g>
		<g>
			<path fill="#116FFF" d="M49.5,58.008h-40c-0.552,0-1-0.447-1-1v-56c0-0.553,0.448-1,1-1h34c0.265,0,0.519,0.105,0.706,0.292
				l6,5.99C50.395,6.478,50.5,6.732,50.5,6.998v50.01C50.5,57.561,50.053,58.008,49.5,58.008z M10.5,56.008h38V7.413l-5.414-5.405
				H10.5V56.008z"/>
		</g>
		<g>
			<path fill="#116FFF" d="M46.51,60.998c-0.551,0-0.998-0.445-1-0.997l-0.01-2.99c-0.002-0.552,0.444-1.001,0.997-1.003
				c0.001,0,0.002,0,0.003,0c0.551,0,0.998,0.445,1,0.997l0.01,2.99c0.002,0.552-0.444,1.001-0.997,1.003
				C46.512,60.998,46.511,60.998,46.51,60.998z"/>
		</g>
		<g>
			<path fill="#116FFF" d="M46.51,60.998h-40c-0.552,0-1.005-0.447-1.005-1s0.443-1,0.995-1h40.01c0.553,0,1,0.447,1,1
				S47.063,60.998,46.51,60.998z"/>
		</g>
		<g>
			<path fill="#116FFF" d="M9.5,5.008c-0.001,0-0.002,0-0.003,0l-2.99-0.01C5.954,4.996,5.508,4.547,5.51,3.995s0.449-0.997,1-0.997
				c0.001,0,0.002,0,0.003,0l2.99,0.01c0.552,0.002,0.999,0.451,0.997,1.003S10.051,5.008,9.5,5.008z"/>
		</g>
		<g>
			<path fill="#116FFF" d="M6.51,60.998c-0.552,0-1-0.447-1-1v-56c0-0.553,0.448-1,1-1s1,0.447,1,1v56
				C7.51,60.551,7.062,60.998,6.51,60.998z"/>
		</g>
		<g>
			<path fill="#116FFF" d="M43.51,63.998c-0.551,0-0.998-0.445-1-0.997l-0.01-3c-0.002-0.552,0.444-1.001,0.997-1.003
				c0.001,0,0.002,0,0.003,0c0.551,0,0.998,0.445,1,0.997l0.01,3c0.002,0.552-0.444,1.001-0.997,1.003
				C43.512,63.998,43.511,63.998,43.51,63.998z"/>
		</g>
		<g>
			<path fill="#116FFF" d="M43.51,63.998h-40c-0.552,0-1.005-0.447-1.005-1s0.443-1,0.995-1h40.01c0.553,0,1,0.447,1,1
				S44.063,63.998,43.51,63.998z"/>
		</g>
		<g>
			<path fill="#116FFF" d="M6.5,7.998H3.51c-0.552,0-1-0.447-1-1s0.448-1,1-1H6.5c0.552,0,1,0.447,1,1S7.052,7.998,6.5,7.998z"/>
		</g>
		<g>
			<path fill="#116FFF" d="M3.51,63.998c-0.552,0-1-0.447-1-1v-56c0-0.553,0.448-1,1-1s1,0.447,1,1v56
				C4.51,63.551,4.062,63.998,3.51,63.998z"/>
		</g>
		<g>
			<path fill="#116FFF" d="M49.5,7.998h-6c-0.553,0-1-0.447-1-1s0.447-1,1-1h6c0.553,0,1,0.447,1,1S50.053,7.998,49.5,7.998z"/>
		</g>
		<g>
			<path fill="#116FFF" d="M43.5,7.868c-0.553,0-1-0.447-1-1v-5.86c0-0.553,0.447-1,1-1s1,0.447,1,1v5.86
				C44.5,7.421,44.053,7.868,43.5,7.868z"/>
		</g>
		<g>
			<path fill="#116FFF" d="M57.5,13.998c-0.553,0-1-0.447-1-1c0-0.552-0.448-1-1-1s-1,0.448-1,1c0,0.553-0.447,1-1,1s-1-0.447-1-1
				c0-1.654,1.346-3,3-3s3,1.346,3,3C58.5,13.551,58.053,13.998,57.5,13.998z"/>
		</g>
		<g>
			<path fill="#116FFF" d="M53.5,47.998c-0.553,0-1-0.447-1-1v-34c0-0.553,0.447-1,1-1s1,0.447,1,1v34
				C54.5,47.551,54.053,47.998,53.5,47.998z"/>
		</g>
		<g>
			<path fill="#116FFF" d="M57.5,47.998c-0.553,0-1-0.447-1-1v-34c0-0.553,0.447-1,1-1s1,0.447,1,1v34
				C58.5,47.551,58.053,47.998,57.5,47.998z"/>
		</g>
		<g>
			<path fill="#116FFF" d="M55.501,50.998c-0.323,0-0.641-0.156-0.833-0.445l-2-3c-0.307-0.46-0.183-1.08,0.277-1.387
				s1.081-0.183,1.387,0.277l2,3c0.307,0.46,0.183,1.08-0.277,1.387C55.884,50.943,55.691,50.998,55.501,50.998z"/>
		</g>
		<g>
			<path fill="#116FFF" d="M55.499,50.998c-0.19,0-0.383-0.055-0.554-0.168c-0.46-0.307-0.584-0.927-0.277-1.387l2-3
				c0.306-0.46,0.926-0.584,1.387-0.277c0.46,0.307,0.584,0.927,0.277,1.387l-2,3C56.14,50.842,55.822,50.998,55.499,50.998z"/>
		</g>
		<g>
			<path fill="#116FFF" d="M55.5,51.998c-0.553,0-1-0.447-1-1v-1c0-0.553,0.447-1,1-1s1,0.447,1,1v1
				C56.5,51.551,56.053,51.998,55.5,51.998z"/>
		</g>
		<g>
			<path fill="#116FFF" d="M57.5,45.998h-4c-0.553,0-1-0.447-1-1s0.447-1,1-1h4c0.553,0,1,0.447,1,1S58.053,45.998,57.5,45.998z"/>
		</g>
		<g>
			<path fill="#116FFF" d="M60.5,16.998c-0.553,0-1-0.447-1-1c0-0.561-0.439-1-1-1c-0.553,0-1-0.447-1-1s0.447-1,1-1
				c1.654,0,3,1.346,3,3C61.5,16.551,61.053,16.998,60.5,16.998z"/>
		</g>
		<g>
			<path fill="#116FFF" d="M60.5,28.998c-0.553,0-1-0.447-1-1v-12c0-0.553,0.447-1,1-1s1,0.447,1,1v12
				C61.5,28.551,61.053,28.998,60.5,28.998z"/>
		</g>
		<g>
			<path fill="#116FFF" d="M58.5,14.998h-1c-0.553,0-1-0.447-1-1s0.447-1,1-1h1c0.553,0,1,0.447,1,1S59.053,14.998,58.5,14.998z"/>
		</g>
		<g>
			<path fill="#116FFF" d="M57.5,23.998h-4c-0.553,0-1-0.447-1-1s0.447-1,1-1h4c0.553,0,1,0.447,1,1S58.053,23.998,57.5,23.998z"/>
		</g>
		<g>
			<path fill="#116FFF" d="M17.5,15.998c-1.654,0-3-1.346-3-3v-3c0-1.654,1.346-3,3-3s3,1.346,3,3v3
				C20.5,14.652,19.154,15.998,17.5,15.998z M17.5,8.998c-0.551,0-1,0.448-1,1v3c0,0.552,0.449,1,1,1s1-0.448,1-1v-3
				C18.5,9.446,18.051,8.998,17.5,8.998z"/>
		</g>
		<g>
			<path fill="#116FFF" d="M17.5,27.998c-1.654,0-3-1.346-3-3v-3c0-1.654,1.346-3,3-3s3,1.346,3,3v3
				C20.5,26.652,19.154,27.998,17.5,27.998z M17.5,20.998c-0.551,0-1,0.448-1,1v3c0,0.552,0.449,1,1,1s1-0.448,1-1v-3
				C18.5,21.446,18.051,20.998,17.5,20.998z"/>
		</g>
		<g>
			<path fill="#116FFF" d="M17.5,21.998c-0.552,0-1-0.447-1-1v-7c0-0.553,0.448-1,1-1s1,0.447,1,1v7
				C18.5,21.551,18.052,21.998,17.5,21.998z"/>
		</g>
		<g>
			<path fill="#116FFF" d="M17.5,39.998c-1.654,0-3-1.346-3-3v-3c0-1.654,1.346-3,3-3s3,1.346,3,3v3
				C20.5,38.652,19.154,39.998,17.5,39.998z M17.5,32.998c-0.551,0-1,0.448-1,1v3c0,0.552,0.449,1,1,1s1-0.448,1-1v-3
				C18.5,33.446,18.051,32.998,17.5,32.998z"/>
		</g>
		<g>
			<path fill="#116FFF" d="M17.5,33.998c-0.552,0-1-0.447-1-1v-7c0-0.553,0.448-1,1-1s1,0.447,1,1v7
				C18.5,33.551,18.052,33.998,17.5,33.998z"/>
		</g>
		<g>
			<path fill="#116FFF" d="M17.5,51.998c-1.654,0-3-1.346-3-3v-3c0-1.654,1.346-3,3-3s3,1.346,3,3v3
				C20.5,50.652,19.154,51.998,17.5,51.998z M17.5,44.998c-0.551,0-1,0.448-1,1v3c0,0.552,0.449,1,1,1s1-0.448,1-1v-3
				C18.5,45.446,18.051,44.998,17.5,44.998z"/>
		</g>
		<g>
			<path fill="#116FFF" d="M17.5,45.998c-0.552,0-1-0.447-1-1v-7c0-0.553,0.448-1,1-1s1,0.447,1,1v7
				C18.5,45.551,18.052,45.998,17.5,45.998z"/>
		</g>
		<g>
			<path fill="#116FFF" d="M43.5,18.998h-18c-0.552,0-1-0.447-1-1s0.448-1,1-1h18c0.553,0,1,0.447,1,1S44.053,18.998,43.5,18.998z"
				/>
		</g>
		<g>
			<path fill="#116FFF" d="M43.5,24.998h-18c-0.552,0-1-0.447-1-1s0.448-1,1-1h18c0.553,0,1,0.447,1,1S44.053,24.998,43.5,24.998z"
				/>
		</g>
		<g>
			<path fill="#116FFF" d="M43.5,30.998h-18c-0.552,0-1-0.447-1-1s0.448-1,1-1h18c0.553,0,1,0.447,1,1S44.053,30.998,43.5,30.998z"
				/>
		</g>
		<g>
			<path fill="#116FFF" d="M43.5,36.998h-18c-0.552,0-1-0.447-1-1s0.448-1,1-1h18c0.553,0,1,0.447,1,1S44.053,36.998,43.5,36.998z"
				/>
		</g>
		<g>
			<path fill="#116FFF" d="M43.5,42.998h-18c-0.552,0-1-0.447-1-1s0.448-1,1-1h18c0.553,0,1,0.447,1,1S44.053,42.998,43.5,42.998z"
				/>
		</g>
	</g>
</g>
<g id="_x32_0_lock_x2C__safe_x2C__protection_x2C__block_x2C__chain_x2C__cryptocurrency_x2C__program">
</g>
<g id="_x31_9_server_x2C__data_x2C__bitcoin_x2C__coin_x2C__block_x2C__chain_x2C__cryptocurrency">
</g>
<g id="_x31_8_key_x2C__bitcoin_x2C__coin_x2C__block_x2C__chain_x2C__cryptocurrency">
</g>
<g id="_x31_7_pool_x2C__network_x2C__bitcoin_x2C__coin_x2C__block_x2C__chain_x2C__cryptocurrency">
</g>
<g id="_x31_6_mining_x2C__shovel_x2C__mine_x2C__coin_x2C__block_x2C__chain_x2C__cryptocurrency">
</g>
<g id="_x31_5_purse_x2C__bitcoin_x2C__coin_x2C__block_x2C__chain_x2C__cryptocurrency">
</g>
<g id="_x31_4_safe_x2C__protection_x2C__block_x2C__chain_x2C__cryptocurrency_x2C__program">
</g>
<g id="_x31_3_mining_x2C__funnel_x2C__satoshi_x2C__bitcoin_x2C__coin_x2C__cryptocurrency">
</g>
<g id="_x31_2_chart_x2C__bitcoin_x2C__coin_x2C__block_x2C__chain_x2C__cryptocurrency">
</g>
<g id="_x31_1_computer_x2C__monitor_x2C__bitcoin_x2C__coin_x2C__block_x2C__chain_x2C__cryptocurrency">
</g>
<g id="_x31_0_mining_x2C__pickaxe_x2C__stone_x2C__mine_x2C___bitcoin_x2C__coin_x2C__cryptocurrency">
</g>
<g id="_x39__miner_x2C__mining_x2C__computer_x2C__pickaxe_x2C__program_x2C__cryptocurrency">
</g>
<g id="_x38__video_card_x2C__mining_x2C__bitcoin_x2C__coin_x2C__block_x2C__chain_x2C__cryptocurrency">
</g>
<g id="_x37__exchanger_x2C__site_x2C__bitcoin_x2C__coin_x2C__block_x2C__chain_x2C__cryptocurrency">
</g>
<g id="_x36__shop_x2C__product_x2C__bitcoin_x2C__coin_x2C__block_x2C__chain_x2C__cryptocurrency">
</g>
<g id="_x35__bitcoin_x2C__coin_x2C__exchange_x2C__block_x2C__chain_x2C__cryptocurrency_x2C__product">
</g>
<g id="_x34__bitcoin_x2C__coin_x2C__exchange_x2C__block_x2C__chain_x2C__cryptocurrency">
</g>
<g id="_x33__bitcoin_x2C__coin_x2C__exchange_x2C__block_x2C__chain_x2C__cryptocurrency">
</g>
<g id="_x32__brain_x2C__smart_x2C__coin_x2C__block_x2C__chain_x2C__cryptocurrency">
</g>
<g id="_x31__bitcoin_x2C__coin_x2C__block_x2C__chain_x2C__cryptocurrency">
</g>
</svg>
